<svg xmlns="http://www.w3.org/2000/svg" width="24" height="24" viewBox="0 0 24 24" fill="none" stroke="#000000" stroke-width="2" stroke-linecap="round" stroke-linejoin="round">
  <path d="M18 2h-3a4 4 0 0 0-4 4v14a2 2 0 0 0 2 2h3a2 2 0 0 0 2-2V6a4 4 0 0 0-4-4z" fill="#00FF00"/>
  <path d="M11 20H8a2 2 0 0 0-2 2h0a2 2 0 0 0 2-2h3"></path>
  <path d="M11 16H8a2 2 0 0 0-2 2h0a2 2 0 0 0 2-2h3"></path>
  <path d="M11 12H8a2 2 0 0 0-2 2h0a2 2 0 0 0 2-2h3"></path>
  <path d="M11 8H8a2 2 0 0 0-2 2h0a2 2 0 0 0 2-2h3"></path>
</svg>